<?xml version="1.0" encoding="iso-8859-1"?>
<!-- Generator: Adobe Illustrator 19.0.0, SVG Export Plug-In . SVG Version: 6.00 Build 0)  -->
<svg version="1.1" id="Layer_1" xmlns="http://www.w3.org/2000/svg" xmlns:xlink="http://www.w3.org/1999/xlink" x="0px" y="0px"
	 viewBox="0 0 510.828 510.828" style="enable-background:new 0 0 510.828 510.828;" xml:space="preserve">
<g transform="translate(1 1)">
	<path style="fill:#D0E8F9;" d="M407.58,64.649c83.308,83.308,73.763,227.363-21.695,321.953
		c-94.59,94.59-239.512,104.136-321.953,21.695S-8.962,180.933,85.628,85.476C181.085-9.114,325.14-18.66,407.58,64.649
		L407.58,64.649z"/>
	<path style="fill:#0096E6;" d="M205.384,472.513c-55.539,0-107.607-19.092-147.525-59.01
		C16.204,371.849-4.623,313.706-0.284,250.357C4.055,187.876,32.692,127.13,79.553,79.401
		C127.282,32.54,188.028,3.903,250.509-0.436c63.349-4.339,121.492,16.488,163.146,58.142
		c85.912,85.912,76.366,236.041-21.695,334.102C339.892,445.611,271.336,472.513,205.384,472.513z M266.997,16.052
		c-5.207,0-9.546,0-14.753,0.868C193.234,20.391,135.96,47.293,91.702,91.55S20.543,193.083,17.072,252.093
		c-4.339,58.142,14.753,111.078,53.803,149.261c79.837,79.837,218.685,70.292,309.803-21.695
		c91.119-91.119,100.664-229.966,21.695-309.803C366.794,35.144,319.065,16.052,266.997,16.052z"/>
	<path style="fill:#FFFFFF;" d="M205.384,429.991c-45.125,0-86.78-16.488-117.153-45.993
		c-69.424-69.424-59.878-191.783,21.695-273.356c43.39-43.39,99.797-67.688,156.203-67.688c45.125,0,86.78,16.488,117.153,45.993
		c69.424,69.424,59.878,191.783-21.695,273.356C319.065,404.825,261.79,429.991,205.384,429.991L205.384,429.991z"/>
	<path style="fill:#0096E6;" d="M205.384,438.669c-47.729,0-91.119-17.356-123.227-48.597
		c-35.58-35.58-52.936-85.044-48.597-138.847s28.637-105.871,69.424-146.658c45.125-45.125,104.136-70.292,162.278-70.292
		c47.729,0,91.119,17.356,123.227,48.597c35.58,35.58,52.936,85.044,48.597,138.847c-4.339,53.803-28.637,105.871-69.424,146.658
		C323.404,412.635,264.394,438.669,205.384,438.669z M266.997,50.764c-53.803,0-108.475,23.431-150.129,65.085
		c-38.183,38.183-60.746,85.912-65.085,135.376c-3.471,49.464,11.281,93.722,43.39,124.963
		c28.637,28.637,67.688,43.39,111.078,43.39c53.803,0,108.475-23.431,150.129-65.085c38.183-38.183,60.746-85.912,65.085-135.376
		c3.471-49.464-11.281-93.722-43.39-124.963C349.438,66.384,309.519,50.764,266.997,50.764z"/>
	<path style="fill:#FFFFFF;" d="M386.753,386.601c-87.647,87.647-217.817,102.4-302.861,38.183
		c5.207,6.942,10.414,13.885,17.356,19.959c83.308,83.308,227.363,73.763,321.953-21.695
		c94.59-94.59,104.136-239.512,21.695-321.953c-6.075-6.075-13.017-12.149-19.959-17.356
		C489.153,168.784,474.401,298.954,386.753,386.601L386.753,386.601z"/>
	<g>
		<path style="fill:#0096E6;" d="M242.699,509.828c-57.275,0-108.475-20.827-147.525-59.01
			c-6.075-6.075-12.149-13.017-18.224-20.827l12.149-12.149c82.441,62.481,207.403,45.993,290.712-38.183
			c83.308-83.309,99.797-209.139,38.183-290.712l12.149-12.149c7.81,6.075,14.753,11.281,20.827,18.224
			c41.654,41.654,62.481,99.797,58.142,163.146c-4.339,63.349-32.976,124.095-79.837,170.956
			c-47.729,47.729-108.475,75.498-170.956,79.837C253.112,509.828,247.906,509.828,242.699,509.828z M135.96,462.099
			c34.712,22.563,76.366,32.976,121.492,30.373c59.01-4.339,115.417-30.373,159.675-74.63s71.159-101.532,74.631-159.675
			c2.603-45.125-7.81-86.78-30.373-121.492c27.77,83.308,2.603,184.841-69.424,256.868l0,0
			C320.801,464.703,219.268,489.869,135.96,462.099z M386.753,386.601L386.753,386.601L386.753,386.601z"/>
		<path style="fill:#0096E6;" d="M266.997,508.961c-2.603,0-4.339-0.868-6.075-2.603l-37.315-37.315
			c-3.471-3.471-3.471-8.678,0-12.149c3.471-3.471,8.678-3.471,12.149,0l36.447,36.447c3.471,3.471,3.471,8.678,0,12.149
			C271.336,508.093,268.733,508.961,266.997,508.961z M202.78,506.357c-2.603,0-4.339-0.868-6.075-2.603l-36.447-36.447
			c-3.471-3.471-3.471-8.678,0-12.149c3.471-3.471,8.678-3.471,12.149,0l36.447,36.447c3.471,3.471,3.471,8.678,0,12.149
			C207.987,505.489,205.384,506.357,202.78,506.357z M463.119,506.357c-5.207,0-8.678-3.471-8.678-8.678
			c0-5.207,3.471-8.678,8.678-8.678c13.885,0,26.034-7.81,26.034-17.356c0-5.207,3.471-8.678,8.678-8.678
			c5.207,0,8.678,3.471,8.678,8.678C506.509,490.737,486.55,506.357,463.119,506.357z M55.255,497.679
			c-24.298,0-43.39-19.092-43.39-43.39c0-5.207,3.471-8.678,8.678-8.678s8.678,3.471,8.678,8.678
			c0,14.753,11.281,26.034,26.034,26.034c5.207,0,8.678,3.471,8.678,8.678S59.594,497.679,55.255,497.679z M326.007,494.208
			c-2.603,0-4.339-0.868-6.075-2.603l-36.447-36.447c-3.471-3.471-3.471-8.678,0-12.149c3.471-3.471,8.678-3.471,12.149,0
			l36.447,36.447c3.471,3.471,3.471,8.678,0,12.149C331.214,493.34,328.611,494.208,326.007,494.208z M402.373,489.001
			c-5.207,0-8.678-3.471-8.678-8.678c0-5.207,3.471-8.678,8.678-8.678c43.39,0,78.102-34.712,78.102-78.102
			c0-5.207,3.471-8.678,8.678-8.678s8.678,3.471,8.678,8.678C497.831,445.611,454.441,489.001,402.373,489.001z M368.529,475.116
			c-2.603,0-4.339-0.868-6.075-2.603l-36.447-36.447c-3.471-3.471-3.471-8.678,0-12.149s8.678-3.471,12.149,0l36.447,36.447
			c3.471,3.471,3.471,8.678,0,12.149C372.868,474.249,370.265,475.116,368.529,475.116z M404.109,449.083
			c-2.603,0-4.339-0.868-6.075-2.603l-36.447-36.447c-3.471-3.471-3.471-8.678,0-12.149c3.471-3.471,8.678-3.471,12.149,0
			l36.447,36.447c3.471,3.471,3.471,8.678,0,12.149C408.448,448.215,406.712,449.083,404.109,449.083z M434.482,418.71
			c-2.603,0-4.339-0.868-6.075-2.603l-35.58-35.58c-3.471-3.471-3.471-8.678,0-12.149c3.471-3.471,8.678-3.471,12.149,0l35.58,35.58
			c3.471,3.471,3.471,8.678,0,12.149C438.821,417.842,437.085,418.71,434.482,418.71z M461.384,383.998
			c-2.603,0-4.339-0.868-6.075-2.603l-36.447-36.447c-3.471-3.471-3.471-8.678,0-12.149c3.471-3.471,8.678-3.471,12.149,0
			l36.447,36.447c3.471,3.471,3.471,8.678,0,12.149C465.723,383.13,463.987,383.998,461.384,383.998z M482.211,344.079
			c-2.603,0-4.339-0.868-6.075-2.603l-36.447-36.447c-3.471-3.471-3.471-8.678,0-12.149c3.471-3.471,8.678-3.471,12.149,0
			l36.447,36.447c3.471,3.471,3.471,8.678,0,12.149C486.55,343.211,484.814,344.079,482.211,344.079z M498.699,285.937
			c-2.603,0-4.339-0.868-6.075-2.603l-36.447-36.447c-3.471-3.471-3.471-8.678,0-12.149c3.471-3.471,8.678-3.471,12.149,0
			l36.447,36.447c3.471,3.471,3.471,8.678,0,12.149C503.038,285.069,500.435,285.937,498.699,285.937z M499.567,226.059
			c-2.603,0-4.339-0.868-6.075-2.603l-36.447-36.447c-3.471-3.471-3.471-8.678,0-12.149c3.471-3.471,8.678-3.471,12.149,0
			l36.447,36.447c3.471,3.471,3.471,8.678,0,12.149C503.906,225.191,502.17,226.059,499.567,226.059z M489.153,63.781
			c-5.207,0-8.678-3.471-8.678-8.678c0-19.092-11.281-34.712-26.034-34.712c-5.207,0-8.678-3.471-8.678-8.678
			s3.471-8.678,8.678-8.678c24.298,0,43.39,23.431,43.39,52.068C497.831,59.442,493.492,63.781,489.153,63.781z"/>
	</g>
	<path style="fill:#D0E8F9;" d="M337.289,200.893c-1.736-50.332-39.051-70.292-96.325-70.292c-2.603,0-5.207,0-7.81,0
		c-17.356,0.868-34.712-1.736-45.993-9.546c-5.207-3.471-8.678-6.942-11.281-10.414c-0.868-0.868-4.339,0-4.339,2.603
		c0,3.471-0.868,7.81,0,12.149c0,17.356-1.736,14.753-12.149,31.241c-6.075,9.546-10.414,19.092-13.885,30.373
		c-8.678,3.471-14.753,10.414-16.488,19.092l-2.603,11.281c-1.736,10.414,2.603,19.092,11.281,23.431
		c0.868,25.166,10.414,47.729,32.976,63.349l-2.603,14.753c-0.868,4.339-3.471,6.942-6.942,7.81l-52.068,13.017
		c-13.885,4.339-23.431,15.62-26.902,31.241l-0.868,3.471c2.603,3.471,5.207,6.075,7.81,9.546
		c29.505,29.505,71.159,45.993,117.153,45.993c39.051,0,78.102-12.149,112.814-32.976l-59.01-45.993
		c-3.471-2.603-6.075-7.81-5.207-12.149l2.603-17.356c32.976-6.075,54.671-26.902,67.688-54.671
		c14.753-1.736,26.902-11.281,27.77-24.298l1.736-14.753C354.645,216.513,347.702,206.967,337.289,200.893L337.289,200.893z"/>
	<path style="fill:#0096E6;" d="M205.384,438.669c-47.729,0-91.119-17.356-123.227-48.597c-2.603-2.603-5.207-5.207-7.81-8.678
		l-3.471-4.339l1.736-7.81c4.339-18.224,16.488-32.976,32.976-37.315l52.068-13.017l0.868-0.868l1.736-9.546
		c-18.224-14.753-29.505-35.58-31.241-61.614c-9.546-6.942-13.885-19.092-11.281-30.373l2.603-11.281
		c1.736-9.546,8.678-18.224,17.356-22.563c3.471-10.414,8.678-19.959,13.885-28.637c2.603-3.471,4.339-6.942,6.075-8.678
		c5.207-8.678,5.207-8.678,5.207-19.959c0-4.339,0-8.678,0.868-13.017c0-4.339,3.471-8.678,8.678-9.546
		c4.339-0.868,9.546,0,11.281,4.339c0.868,1.736,3.471,4.339,8.678,7.81c9.546,6.942,23.431,9.546,40.786,8.678
		c2.603,0,5.207,0,7.81,0c80.705,0,101.532,39.051,105.003,73.763c11.281,7.81,18.224,19.959,16.488,32.108l-1.736,14.753
		c-1.736,15.62-13.885,27.769-31.241,31.241c-13.885,28.637-36.447,47.729-65.953,54.671l-1.736,11.281
		c0,0.868,0.868,2.603,1.736,3.471l69.424,52.936l-10.414,6.942C286.089,426.52,246.17,438.669,205.384,438.669z M89.967,371.849
		c1.736,1.736,3.471,3.471,5.207,5.207c28.637,28.637,67.688,43.39,111.078,43.39c32.976,0,65.953-8.678,97.193-25.166
		l-48.597-37.315c-6.075-5.207-9.546-12.149-8.678-19.959l3.471-23.431l6.075-0.868c27.77-5.207,48.597-21.695,61.614-50.332
		l1.736-4.339l5.207-0.868c11.281-0.868,19.959-7.81,20.827-16.488l1.736-14.753c0.868-6.942-3.471-13.885-12.149-18.224
		l-4.339-2.603v-5.207c-1.736-41.654-30.373-61.614-87.647-61.614c-2.603,0-4.339,0-6.942,0
		c-20.827,1.736-39.051-2.603-52.068-11.281c-2.603,0-2.603,0-3.471-0.868c0,13.885-1.736,16.488-7.81,26.034
		c-1.736,1.736-3.471,4.339-6.075,8.678c-5.207,8.678-9.546,18.224-13.017,28.637l-0.868,3.471l-3.471,1.736
		c-5.207,2.603-9.546,6.942-10.414,12.149l-2.603,11.281c-0.868,6.075,1.736,11.281,6.942,13.885l4.339,2.603v5.207
		c1.736,25.166,10.414,43.39,29.505,56.407l4.339,3.471l-3.471,20.827c-1.736,6.942-6.942,13.017-13.885,14.753l-52.068,13.017
		C101.248,351.022,92.57,359.699,89.967,371.849z M180.218,113.245C180.218,113.245,180.218,114.113,180.218,113.245
		C180.218,114.113,180.218,113.245,180.218,113.245z"/>
</g>
<g>
</g>
<g>
</g>
<g>
</g>
<g>
</g>
<g>
</g>
<g>
</g>
<g>
</g>
<g>
</g>
<g>
</g>
<g>
</g>
<g>
</g>
<g>
</g>
<g>
</g>
<g>
</g>
<g>
</g>
</svg>
